<mxfile>
    <diagram id="aeK9TVIWi9eqSDKCjZsI" name="Page-1">
        <mxGraphModel dx="2108" dy="1234" grid="0" gridSize="10" guides="1" tooltips="1" connect="1" arrows="1" fold="1" page="1" pageScale="1" pageWidth="4681" pageHeight="3300" math="0" shadow="0">
            <root>
                <mxCell id="0"/>
                <mxCell id="1" parent="0"/>
                <mxCell id="D5PJ7m-70zFiwvf29XOF-81" value="" style="endArrow=none;html=1;rounded=1;flowAnimation=1;entryX=0.5;entryY=0;entryDx=0;entryDy=0;exitX=0.5;exitY=1;exitDx=0;exitDy=0;" parent="1" edge="1" target="30" source="10">
                    <mxGeometry relative="1" as="geometry">
                        <mxPoint x="1720" y="144" as="sourcePoint"/>
                        <mxPoint x="1580" y="144" as="targetPoint"/>
                    </mxGeometry>
                </mxCell>
                <mxCell id="4" value="&lt;b&gt;Recebimento&lt;/b&gt;" style="rounded=1;whiteSpace=wrap;html=1;fontSize=20;" parent="1" vertex="1">
                    <mxGeometry x="108" y="92" width="151" height="60" as="geometry"/>
                </mxCell>
                <mxCell id="5" value="&lt;b&gt;Devolução&lt;/b&gt;" style="rounded=1;whiteSpace=wrap;html=1;fontSize=20;" parent="1" vertex="1">
                    <mxGeometry x="108" y="167" width="151" height="60" as="geometry"/>
                </mxCell>
                <mxCell id="6" value="&lt;b&gt;Liquidação&lt;/b&gt;" style="rounded=1;whiteSpace=wrap;html=1;fontSize=20;" parent="1" vertex="1">
                    <mxGeometry x="108" y="242" width="151" height="60" as="geometry"/>
                </mxCell>
                <mxCell id="7" value="&lt;b&gt;Conciliação&lt;/b&gt;" style="rounded=1;whiteSpace=wrap;html=1;fontSize=20;" parent="1" vertex="1">
                    <mxGeometry x="108" y="317" width="151" height="60" as="geometry"/>
                </mxCell>
                <mxCell id="8" value="&lt;b&gt;Banco &lt;br style=&quot;font-size: 20px&quot;&gt;Rendimento&lt;/b&gt;" style="outlineConnect=0;gradientColor=none;fillColor=#277116;strokeColor=none;dashed=0;verticalLabelPosition=bottom;verticalAlign=top;align=center;html=1;fontSize=20;fontStyle=0;aspect=fixed;pointerEvents=1;shape=mxgraph.aws4.bank;fontColor=#FFFFFF;" parent="1" vertex="1">
                    <mxGeometry x="364" y="63" width="78" height="78" as="geometry"/>
                </mxCell>
                <mxCell id="9" value="&lt;b&gt;Conta Bancária&lt;/b&gt;" style="rounded=1;whiteSpace=wrap;html=1;fontSize=20;" parent="1" vertex="1">
                    <mxGeometry x="552" y="54" width="166" height="60" as="geometry"/>
                </mxCell>
                <mxCell id="10" value="&lt;b&gt;Chave Pix&lt;/b&gt;" style="rounded=1;whiteSpace=wrap;html=1;fontSize=20;" parent="1" vertex="1">
                    <mxGeometry x="1669" y="50" width="151" height="60" as="geometry"/>
                </mxCell>
                <mxCell id="11" value="&lt;b&gt;Gestão Financeira&lt;/b&gt;" style="rounded=1;whiteSpace=wrap;html=1;fontSize=20;" parent="1" vertex="1">
                    <mxGeometry x="822" y="58" width="203" height="60" as="geometry"/>
                </mxCell>
                <mxCell id="12" value="&lt;b&gt;Split de Tarifa&lt;/b&gt;" style="rounded=1;whiteSpace=wrap;html=1;fontSize=20;" parent="1" vertex="1">
                    <mxGeometry x="1089" y="58" width="151" height="60" as="geometry"/>
                </mxCell>
                <mxCell id="13" value="" style="endArrow=none;html=1;rounded=1;flowAnimation=1;" edge="1" parent="1">
                    <mxGeometry relative="1" as="geometry">
                        <mxPoint x="46" y="466" as="sourcePoint"/>
                        <mxPoint x="186" y="466" as="targetPoint"/>
                    </mxGeometry>
                </mxCell>
                <mxCell id="14" value="" style="endArrow=none;html=1;rounded=1;flowAnimation=1;" edge="1" parent="1">
                    <mxGeometry relative="1" as="geometry">
                        <mxPoint x="56" y="476" as="sourcePoint"/>
                        <mxPoint x="196" y="476" as="targetPoint"/>
                    </mxGeometry>
                </mxCell>
                <mxCell id="15" value="" style="endArrow=none;html=1;rounded=1;flowAnimation=1;" edge="1" parent="1">
                    <mxGeometry relative="1" as="geometry">
                        <mxPoint x="66" y="486" as="sourcePoint"/>
                        <mxPoint x="206" y="486" as="targetPoint"/>
                    </mxGeometry>
                </mxCell>
                <mxCell id="16" value="" style="endArrow=none;html=1;rounded=1;flowAnimation=1;" edge="1" parent="1">
                    <mxGeometry relative="1" as="geometry">
                        <mxPoint x="76" y="496" as="sourcePoint"/>
                        <mxPoint x="216" y="496" as="targetPoint"/>
                    </mxGeometry>
                </mxCell>
                <mxCell id="17" value="" style="endArrow=none;html=1;rounded=1;flowAnimation=1;" edge="1" parent="1">
                    <mxGeometry relative="1" as="geometry">
                        <mxPoint x="86" y="506" as="sourcePoint"/>
                        <mxPoint x="226" y="506" as="targetPoint"/>
                    </mxGeometry>
                </mxCell>
                <mxCell id="18" value="" style="endArrow=none;html=1;rounded=1;flowAnimation=1;" edge="1" parent="1">
                    <mxGeometry relative="1" as="geometry">
                        <mxPoint x="96" y="516" as="sourcePoint"/>
                        <mxPoint x="236" y="516" as="targetPoint"/>
                    </mxGeometry>
                </mxCell>
                <mxCell id="19" value="" style="endArrow=none;html=1;rounded=1;flowAnimation=1;" edge="1" parent="1">
                    <mxGeometry relative="1" as="geometry">
                        <mxPoint x="106" y="526" as="sourcePoint"/>
                        <mxPoint x="246" y="526" as="targetPoint"/>
                    </mxGeometry>
                </mxCell>
                <mxCell id="20" value="" style="endArrow=none;html=1;rounded=1;flowAnimation=1;" edge="1" parent="1">
                    <mxGeometry relative="1" as="geometry">
                        <mxPoint x="116" y="536" as="sourcePoint"/>
                        <mxPoint x="256" y="536" as="targetPoint"/>
                    </mxGeometry>
                </mxCell>
                <mxCell id="21" value="" style="endArrow=none;html=1;rounded=1;flowAnimation=1;" edge="1" parent="1">
                    <mxGeometry relative="1" as="geometry">
                        <mxPoint x="126" y="546" as="sourcePoint"/>
                        <mxPoint x="266" y="546" as="targetPoint"/>
                    </mxGeometry>
                </mxCell>
                <mxCell id="22" value="" style="endArrow=none;html=1;rounded=1;flowAnimation=1;" edge="1" parent="1">
                    <mxGeometry relative="1" as="geometry">
                        <mxPoint x="136" y="556" as="sourcePoint"/>
                        <mxPoint x="276" y="556" as="targetPoint"/>
                    </mxGeometry>
                </mxCell>
                <mxCell id="23" value="" style="endArrow=none;html=1;rounded=1;flowAnimation=1;" edge="1" parent="1">
                    <mxGeometry relative="1" as="geometry">
                        <mxPoint x="146" y="566" as="sourcePoint"/>
                        <mxPoint x="286" y="566" as="targetPoint"/>
                    </mxGeometry>
                </mxCell>
                <mxCell id="24" value="" style="endArrow=none;html=1;rounded=1;flowAnimation=1;" edge="1" parent="1">
                    <mxGeometry relative="1" as="geometry">
                        <mxPoint x="156" y="576" as="sourcePoint"/>
                        <mxPoint x="296" y="576" as="targetPoint"/>
                    </mxGeometry>
                </mxCell>
                <mxCell id="25" value="" style="endArrow=none;html=1;rounded=1;flowAnimation=1;" edge="1" parent="1">
                    <mxGeometry relative="1" as="geometry">
                        <mxPoint x="166" y="586" as="sourcePoint"/>
                        <mxPoint x="306" y="586" as="targetPoint"/>
                    </mxGeometry>
                </mxCell>
                <mxCell id="26" value="" style="endArrow=none;html=1;rounded=1;flowAnimation=1;" edge="1" parent="1">
                    <mxGeometry relative="1" as="geometry">
                        <mxPoint x="176" y="596" as="sourcePoint"/>
                        <mxPoint x="316" y="596" as="targetPoint"/>
                    </mxGeometry>
                </mxCell>
                <mxCell id="27" value="" style="endArrow=none;html=1;rounded=1;flowAnimation=1;" edge="1" parent="1">
                    <mxGeometry relative="1" as="geometry">
                        <mxPoint x="205" y="654" as="sourcePoint"/>
                        <mxPoint x="345" y="654" as="targetPoint"/>
                    </mxGeometry>
                </mxCell>
                <mxCell id="30" value="&lt;b&gt;CPF&lt;/b&gt;" style="rounded=1;whiteSpace=wrap;html=1;fontSize=20;" vertex="1" parent="1">
                    <mxGeometry x="1545" y="182" width="82" height="60" as="geometry"/>
                </mxCell>
                <mxCell id="31" value="&lt;b&gt;CNPJ&lt;/b&gt;" style="rounded=1;whiteSpace=wrap;html=1;fontSize=20;" vertex="1" parent="1">
                    <mxGeometry x="1654" y="182" width="82" height="60" as="geometry"/>
                </mxCell>
                <mxCell id="32" value="&lt;b&gt;Email&lt;/b&gt;" style="rounded=1;whiteSpace=wrap;html=1;fontSize=20;" vertex="1" parent="1">
                    <mxGeometry x="1763" y="182" width="82" height="60" as="geometry"/>
                </mxCell>
                <mxCell id="33" value="&lt;b&gt;Aleatória&lt;/b&gt;" style="rounded=1;whiteSpace=wrap;html=1;fontSize=20;" vertex="1" parent="1">
                    <mxGeometry x="1872" y="182" width="109" height="60" as="geometry"/>
                </mxCell>
                <mxCell id="34" value="" style="endArrow=none;html=1;rounded=1;flowAnimation=1;entryX=0.5;entryY=0;entryDx=0;entryDy=0;exitX=0.5;exitY=1;exitDx=0;exitDy=0;" edge="1" parent="1" source="10" target="31">
                    <mxGeometry relative="1" as="geometry">
                        <mxPoint x="1754.5" y="120" as="sourcePoint"/>
                        <mxPoint x="1596" y="192" as="targetPoint"/>
                    </mxGeometry>
                </mxCell>
                <mxCell id="35" value="" style="endArrow=none;html=1;rounded=1;flowAnimation=1;entryX=0.5;entryY=0;entryDx=0;entryDy=0;exitX=0.5;exitY=1;exitDx=0;exitDy=0;" edge="1" parent="1" source="10" target="32">
                    <mxGeometry relative="1" as="geometry">
                        <mxPoint x="1781" y="136" as="sourcePoint"/>
                        <mxPoint x="1606" y="202" as="targetPoint"/>
                    </mxGeometry>
                </mxCell>
                <mxCell id="36" value="" style="endArrow=none;html=1;rounded=1;flowAnimation=1;entryX=0.5;entryY=0;entryDx=0;entryDy=0;exitX=0.5;exitY=1;exitDx=0;exitDy=0;" edge="1" parent="1" source="10" target="33">
                    <mxGeometry relative="1" as="geometry">
                        <mxPoint x="1774.5" y="140" as="sourcePoint"/>
                        <mxPoint x="1616" y="212" as="targetPoint"/>
                    </mxGeometry>
                </mxCell>
                <mxCell id="37" value="&lt;b style=&quot;font-size: 20px;&quot;&gt;Consumidor&lt;/b&gt;" style="verticalLabelPosition=bottom;html=1;verticalAlign=top;align=center;strokeColor=none;fillColor=#00BEF2;shape=mxgraph.azure.user;fontSize=20;" vertex="1" parent="1">
                    <mxGeometry x="366.25" y="227" width="73.5" height="75" as="geometry"/>
                </mxCell>
                <mxCell id="38" value="&lt;b&gt;PDV&lt;/b&gt;" style="points=[];aspect=fixed;html=1;align=center;shadow=0;dashed=0;image;image=img/lib/allied_telesis/security/POS.svg;fontSize=20;" vertex="1" parent="1">
                    <mxGeometry x="352.6" y="362" width="100.8" height="107.04" as="geometry"/>
                </mxCell>
            </root>
        </mxGraphModel>
    </diagram>
</mxfile>